

<svg id="Layer_1" data-name="Layer 1" xmlns="http://www.w3.org/2000/svg" viewbox="0 0 592.07 592.08">
  <defs>
    <style>
      .cls-1, .cls-2, .cls-3 {
        fill: none;
        stroke: #00aeef;
        stroke-miterlimit: 10;
      }

      .cls-1 {
        stroke-width: 10px;
      }

      .cls-2 {
        stroke-width: 40px;
      }

      .cls-3 {
        stroke-width: 20px;
      }
    </style>
  </defs>
  <title>prod-s-line-dollar-02</title>
  <g>
    <path  class=" DHGKQMNS_0 cls-1 " cx="300.49" cy="300.57" r="291.04" transform="translate(-5.08 595.98) rotate(-89.9)" d="M9.449999999999989,300.57A291.04,291.04 0,1,1 591.53,300.57A291.04,291.04 0,1,1 9.449999999999989,300.57"></path>
    <g>
      <path  class=" DHGKQMNS_1 cls-2 " d="M199.26,371.71c.77,47.09,42.62,84.52,93.57,83.69" transform="translate(-4.45 -4.53)"></path>
      <path  class=" DHGKQMNS_2 cls-2 " d="M387.8,368.62c.77,47.09-41.71,85.9-95,86.77" transform="translate(-4.45 -4.53)"></path>
      <path  class=" DHGKQMNS_3 cls-2 " d="M387.92,375.92a72.5,72.5,0,0,0-73.78-71.28" transform="translate(-4.45 -4.53)"></path>
      <path  class=" DHGKQMNS_4 cls-2 " d="M397.63,231.42c-.77-47.09-42.62-84.52-93.57-83.68" transform="translate(-4.45 -4.53)"></path>
      <path  class=" DHGKQMNS_5 cls-2 " d="M209.09,234.51c-.77-47.09,41.71-85.9,95-86.77" transform="translate(-4.45 -4.53)"></path>
      <path  class=" DHGKQMNS_6 cls-2 " d="M209,227.22a72.5,72.5,0,0,0,73.78,71.28" transform="translate(-4.45 -4.53)"></path>
      <path  class=" DHGKQMNS_7 cls-2 " x1="262.47" y1="294.23" x2="334.16" y2="303.9" d="M262.47,294.23L334.16,303.9"></path>
    </g>
    <path  class=" DHGKQMNS_8 cls-3 " x1="310.09" y1="75.58" x2="309.97" y2="143.21" d="M310.09,75.58L309.97,143.21"></path>
    <path  class=" DHGKQMNS_9 cls-3 " x1="288.38" y1="450.87" x2="288.26" y2="516.47" d="M288.38,450.87L288.26,516.47"></path>
  </g>
<style>.DHGKQMNS_0{stroke-dasharray:3523 3525;stroke-dashoffset:3524;animation:DHGKQMNS_draw 2000ms ease-out 0ms forwards;}.DHGKQMNS_0{stroke-dasharray:1829 1831;stroke-dashoffset:1830;animation:DHGKQMNS_draw 2000ms ease-out 100ms forwards;}.DHGKQMNS_1{stroke-dasharray:139 141;stroke-dashoffset:140;animation:DHGKQMNS_draw 2000ms ease-out 100ms forwards;}.DHGKQMNS_2{stroke-dasharray:143 145;stroke-dashoffset:144;animation:DHGKQMNS_draw 2000ms ease-out 100ms forwards;}.DHGKQMNS_3{stroke-dasharray:114 116;stroke-dashoffset:115;animation:DHGKQMNS_draw 2000ms ease-out 100ms forwards;}.DHGKQMNS_4{stroke-dasharray:139 141;stroke-dashoffset:140;animation:DHGKQMNS_draw 2000ms ease-out 100ms forwards;}.DHGKQMNS_5{stroke-dasharray:143 145;stroke-dashoffset:144;animation:DHGKQMNS_draw 2000ms ease-out 100ms forwards;}.DHGKQMNS_6{stroke-dasharray:114 116;stroke-dashoffset:115;animation:DHGKQMNS_draw 2000ms ease-out 100ms forwards;}.DHGKQMNS_7{stroke-dasharray:72 74;stroke-dashoffset:73;animation:DHGKQMNS_draw 2000ms ease-out 100ms forwards;}.DHGKQMNS_8{stroke-dasharray:68 70;stroke-dashoffset:69;animation:DHGKQMNS_draw 2000ms ease-out 100ms forwards;}.DHGKQMNS_9{stroke-dasharray:66 68;stroke-dashoffset:67;animation:DHGKQMNS_draw 2000ms ease-out 100ms forwards;}@keyframes DHGKQMNS_draw{100%{stroke-dashoffset:0;}}@keyframes DHGKQMNS_fade{0%{stroke-opacity:1;}94.44444444444444%{stroke-opacity:1;}100%{stroke-opacity:0;}}</style></svg>

