<?xml version="1.0" encoding="utf-8"?>
<!-- Generator: Adobe Illustrator 21.1.0, SVG Export Plug-In . SVG Version: 6.00 Build 0)  -->
<svg version="1.1" id="Layer_1" xmlns="http://www.w3.org/2000/svg" xmlns:xlink="http://www.w3.org/1999/xlink" x="0px" y="0px"
	 width="500px" height="500px" viewBox="0 0 500 500" style="enable-background:new 0 0 500 500;" xml:space="preserve">
<style type="text/css">
	.st0{fill:#00C6EA;}
</style>
<title>save-money</title>
<path class="st0" d="M250,36.5c117.9,0.1,213.5,95.8,213.4,213.7c-0.1,85.7-51.4,163.1-130.3,196.5c-108.7,45.9-233.9-5-279.8-113.6
	s5-233.9,113.6-279.8C193.2,42.1,221.5,36.4,250,36.5 M250,14.5C119.9,14.5,14.5,119.9,14.5,250S119.9,485.5,250,485.5
	S485.5,380.1,485.5,250S380.1,14.5,250,14.5z"/>
<path class="st0" d="M264,375.5v22.6c0.1,6.8-5.4,12.3-12.2,12.4c-0.1,0-0.1,0-0.2,0c-7.7,0-13.1-5.5-13.1-12.4v-22.2
	c-31-2.2-59.1-13.5-75.9-30.6c-2.9-2.9-4.4-6.9-4.4-11c0-9.1,7.3-17.9,16.4-17.9c3.7,0,7.3,1.3,10.2,3.6
	c15.3,12.8,33.9,21.1,53.6,23.7v-80.6c-37.6-10.2-76.6-23-76.6-69c0-37.6,31-65.7,76.6-69v-23.3c0-6.9,5.5-12.4,13.1-12.4
	c6.8-0.1,12.3,5.4,12.4,12.2c0,0.1,0,0.1,0,0.2v24.1c24.5,2.6,47.4,10.2,63.5,25.5c2.9,2.9,4.4,6.9,4.4,10.9
	c-0.2,9.5-8,17.2-17.5,17.1c-3,0-5.9-0.9-8.4-2.6c-13.1-9.5-27-16.1-42-18.2v71.5c37.6,10.2,77.7,24.8,77.7,72.6
	C341.8,338.3,319.5,371.1,264,375.5z M238.5,157.3c-23.7,1.8-39.4,15.3-39.4,34.3c0,17.9,17.1,25.5,39.4,32.1V157.3z M264,270.1
	v73.7c29.9-3.6,40.9-21.9,40.9-37.2C304.9,285.8,287,277,264,270.1z"/>
</svg>
