<?xml version="1.0" encoding="utf-8"?>
<!-- Generator: Adobe Illustrator 21.1.0, SVG Export Plug-In . SVG Version: 6.00 Build 0)  -->
<svg version="1.1" id="Layer_1" xmlns="http://www.w3.org/2000/svg" xmlns:xlink="http://www.w3.org/1999/xlink" x="0px" y="0px"
	 width="300px" height="300px" viewBox="0 0 300 300" enable-background="new 0 0 300 300" xml:space="preserve">
<title>lightblue</title>
<path fill="#0C418E" d="M253.6,58.1c-50.7-50.7-133-50.8-183.7,0c-0.4,0.4-0.8,0.8-1.2,1.2c-2.8,2.7-2.9,7.1-0.2,9.9
	s7.1,2.9,9.9,0.2c0.1-0.1,0.2-0.2,0.3-0.3c44.7-45.8,118.1-46.8,163.9-2.1s46.8,118.1,2.1,163.9S126.6,277.7,80.8,233
	c-22.4-21.8-35-51.7-35-83v-1.5l11.5,11.5c1.3,1.3,3.1,2,5,2c1.9,0,3.7-0.7,5-2c2.7-2.7,2.7-7.2,0-9.9c0,0,0,0,0,0l-23.5-23.5
	c-2.7-2.7-7.2-2.7-9.9,0c0,0,0,0,0,0l-23.5,23.5c-2.7,2.7-2.7,7.2,0,9.9s7.2,2.7,9.9,0l11.5-11.5v1.5c0,71.8,58.2,129.9,129.9,129.9
	c34.5,0,67.5-13.7,91.9-38.1C304.3,191.1,304.3,108.9,253.6,58.1L253.6,58.1z"/>
<g>
	<path fill="#0C418E" d="M172,221.8v12.9c0,3.9-3.1,7.1-7,7.1c0,0-0.1,0-0.1,0c-4.4,0-7.5-3.1-7.5-7.1V222
		c-17.7-1.3-33.8-7.7-43.4-17.5c-1.6-1.7-2.5-3.9-2.5-6.3c0-5.2,4.2-10.2,9.4-10.2c2.1,0,4.2,0.8,5.8,2.1c8.7,7.3,19.4,12,30.7,13.6
		v-46.1c-21.5-5.8-43.8-13.2-43.8-39.5c0-21.5,17.7-37.6,43.8-39.5V65.3c0-4,3.1-7.1,7.5-7.1c3.9,0,7.1,3.1,7.1,7c0,0,0,0.1,0,0.1
		V79c14,1.5,27.1,5.8,36.3,14.6c1.6,1.7,2.5,3.9,2.5,6.3c-0.1,5.5-4.6,9.8-10,9.8c-1.7,0-3.4-0.5-4.8-1.5c-7.5-5.4-15.4-9.2-24-10.4
		v40.9c21.5,5.8,44.5,14.2,44.5,41.5C216.5,200.5,203.8,219.3,172,221.8z M157.4,97c-13.6,1-22.5,8.8-22.5,19.6
		c0,10.2,9.8,14.6,22.5,18.4V97z M172,161.5v42.2c17.1-2.1,23.4-12.5,23.4-21.3C195.4,170.5,185.2,165.4,172,161.5z"/>
</g>
</svg>
